<svg id="Layer_1" data-name="Layer 1" xmlns="http://www.w3.org/2000/svg" width="138.5635" height="40.3467" viewBox="0 0 138.5635 40.3467"><defs><style>.cls-1{fill:#fff;}</style></defs><title>brand</title><path class="cls-1" d="M63.1875,13.0509a6.8711,6.8711,0,0,0-4.848,1.89l-.2253-1.4467a.2978.2978,0,0,0-.3174-.2494l-1.1912.11a.2943.2943,0,0,0-.2661.2888V27.1141a.2756.2756,0,0,0,.0892.2011.2829.2829,0,0,0,.2056.0846h1.6674a.2716.2716,0,0,0,.2-.0846.281.281,0,0,0,.0892-.2011V17.2609a5.2288,5.2288,0,0,1,4.1783-2.012c2.7029.0438,4.0015,1.0279,4.0423,3.7066v8.1586a.29.29,0,0,0,.0846.2011.3041.3041,0,0,0,.21.0846h1.6613a.2745.2745,0,0,0,.2041-.0846.2539.2539,0,0,0,.0907-.2011V18.9268a5.8777,5.8777,0,0,0-1.5827-4.42,5.9917,5.9917,0,0,0-4.2917-1.4557"/><path class="cls-1" d="M80.1223,13.3277H76.1087v-4.18a.2974.2974,0,0,0-.0952-.2191.3076.3076,0,0,0-.2282-.0726L74.45,9.03a.2739.2739,0,0,0-.2524.2616l-.3144,4.0362H71.5707a.3156.3156,0,0,0-.2056.0816.2936.2936,0,0,0-.0847.2086v1.3636a.2625.2625,0,0,0,.0847.204.2932.2932,0,0,0,.2056.0877h2.2615v7.9455a4.6158,4.6158,0,0,0,1.0839,3.3257,4.1616,4.1616,0,0,0,3.1231,1.105,5.8232,5.8232,0,0,0,2.0906-.3552.2915.2915,0,0,0,.1739-.2948l-.1375-1.3378a.2913.2913,0,0,0-.4022-.24,3.68,3.68,0,0,1-1.2788.2c-1.5435-.0393-2.3372-.6-2.3765-2.4565v-7.891h4.0136a.3.3,0,0,0,.2932-.2917V13.6179a.3039.3039,0,0,0-.0876-.2086.3156.3156,0,0,0-.2056-.0816"/><path class="cls-1" d="M95.8822,13.3277H94.2148a.297.297,0,0,0-.2887.29v8.2735c-.0378,2.4429-1.3273,3.6114-4.1285,3.6492-2.7966-.0378-4.06-1.2244-4.0936-3.6492V13.6179a.281.281,0,0,0-.0877-.2025.2961.2961,0,0,0-.2056-.0877H83.7463a.3057.3057,0,0,0-.2086.0877.2726.2726,0,0,0-.0847.2025v8.3234a5.61,5.61,0,0,0,1.59,4.2463,6.6914,6.6914,0,0,0,4.7543,1.545,6.7861,6.7861,0,0,0,4.783-1.5344,5.5923,5.5923,0,0,0,1.5918-4.2569V13.6179a.2915.2915,0,0,0-.29-.29"/><path class="cls-1" d="M102.166,13.2743l-1.6931.1406a.2893.2893,0,0,0-.2691.2842V27.1138a.3018.3018,0,0,0,.0831.2011.298.298,0,0,0,.2086.0846h1.6931a.2854.2854,0,0,0,.2056-.0846.2784.2784,0,0,0,.0892-.2011V13.5676a.284.284,0,0,0-.0967-.2147.2688.2688,0,0,0-.2207-.0786"/><path class="cls-1" d="M51.7562,13.2743l-1.6916.1406a.2884.2884,0,0,0-.2706.2842V27.1138a.2779.2779,0,0,0,.0862.2011.2932.2932,0,0,0,.2056.0846H51.78a.2967.2967,0,0,0,.2071-.0846.2833.2833,0,0,0,.0877-.2011V13.5676a.29.29,0,0,0-.0983-.2147.2721.2721,0,0,0-.2207-.0786"/><path class="cls-1" d="M40.4982,14.931c-.0272-.1028-.0408-.186-.062-.2585A19.9266,19.9266,0,0,0,21.011,0a20.7832,20.7832,0,0,0-5.3378.7029,20.4437,20.4437,0,0,0-2.0211.6334,20.1312,20.1312,0,0,0-10.8827,8.68A18.4489,18.4489,0,0,0,2.8314,29.56a19.4136,19.4136,0,0,0,1.9863,2.9176c.0182,0,.0545.071.1467.1557a.4562.4562,0,0,0,.3038.1224.6228.6228,0,0,0,.4324-.2207c1.0929-1.32,2.6334-3.1262,3.0959-3.6613a1.3335,1.3335,0,0,0,.387-.8027,1.2053,1.2053,0,0,0-.2554-.6032A13.232,13.232,0,0,1,8.26,13.6339l.0075-.0287c.0907-.1784.1981-.3446.3084-.5185A14.59,14.59,0,0,1,21.02,6.275a13.5342,13.5342,0,0,1,8.7677,3.0824c.059.0468.1361.1088.2268.19l.0257.02a13.5424,13.5424,0,0,1,4.59,10.1676,13.2578,13.2578,0,0,1-.0952,1.6039c-.0061.0756-.0182.1648-.0333.2736l-.006.0378A13.9467,13.9467,0,0,1,24.2324,32.9639l-.1134.02a7.6382,7.6382,0,0,1-3.7384-.1527c-1.4784-.5518-.59-2.3673-.59-2.3673.6047-1.749,2.7664-5.043,4.1738-7.4632,1.0627-2.1134.2993-3.4089-.49-4.0317a2.4555,2.4555,0,0,0-1.0067-.4459,9.6636,9.6636,0,0,0-3.3953,0c-1.1549.18-1.3333.7634-.9433.8541.0937.0211.5185.0045,1.4663.139.8647.1315,2.2539.449,1.9259,1.7627-.195.7815-1.2607,1.9636-2.75,3.2954a44.881,44.881,0,0,0-5.6659,6.207S9.77,35.8467,14.943,38.5421c1.5057.7845,6.8919,2.3083,13.1941-.2525l.0468-.0211A19.7781,19.7781,0,0,0,38.3985,29.9,18.9632,18.9632,0,0,0,41.21,20.0223a18.4872,18.4872,0,0,0-.712-5.0913"/><path class="cls-1" d="M21.1649,16.4356a2.3273,2.3273,0,1,0-2.328-2.3341,2.3223,2.3223,0,0,0,2.328,2.3341"/><path class="cls-1" d="M114.5031,13.3277h-4.015v-4.18a.2881.2881,0,0,0-.0968-.2191.31.31,0,0,0-.2282-.0726l-1.3349.1738a.279.279,0,0,0-.2524.2616l-.3114,4.0362H105.947a.3212.3212,0,0,0-.2041.0816.34.34,0,0,0-.0862.2086v1.3636a.2971.2971,0,0,0,.29.2917h2.2675v7.9455a4.622,4.622,0,0,0,1.0824,3.3257,4.1594,4.1594,0,0,0,3.1231,1.105,5.827,5.827,0,0,0,2.0891-.3552.2979.2979,0,0,0,.1739-.2948l-.136-1.3378a.3128.3128,0,0,0-.1421-.2208.2857.2857,0,0,0-.2631-.02,3.6651,3.6651,0,0,1-1.2774.2c-1.5449-.0393-2.331-.5956-2.3763-2.4565v-7.891h4.015a.2773.2773,0,0,0,.2071-.0877.2942.2942,0,0,0,.0892-.204V13.6179a.32.32,0,0,0-.0892-.2086.3294.3294,0,0,0-.2071-.0816"/><polygon class="cls-1" points="66.745 35.265 67.842 35.265 69.744 39.431 71.656 35.265 72.758 35.265 72.758 40.222 71.998 40.222 71.998 36.092 71.98 36.092 70.09 40.222 69.407 40.222 67.52 36.092 67.504 36.092 67.504 40.222 66.745 40.222 66.745 35.265"/><polygon class="cls-1" points="75.967 35.265 80.134 35.265 80.134 35.815 76.773 35.815 76.773 37.398 79.908 37.398 79.908 37.951 76.773 37.951 76.773 39.665 80.164 39.665 80.164 40.222 75.967 40.222 75.967 35.265"/><path class="cls-1" d="M84.0405,39.6652h1.3333a1.8175,1.8175,0,0,0,2.03-1.95c0-1.1852-.5336-1.9-2.0136-1.9h-1.35Zm-.8088-4.4005h2.08c1.8579,0,2.8964.7619,2.8964,2.36,0,1.6628-.8874,2.5971-2.8964,2.5971h-2.08Z"/><path class="cls-1" d="M99.4635,36.7519a1.5634,1.5634,0,0,0-1.6871-1.0551A2.0468,2.0468,0,1,0,97.78,39.79a1.5858,1.5858,0,0,0,1.746-1.4346h.8057a2.3231,2.3231,0,0,1-2.6183,1.9909,2.4952,2.4952,0,0,1-2.789-2.591A2.5818,2.5818,0,0,1,97.78,35.142c1.2592,0,2.3023.5548,2.4882,1.61Z"/><rect class="cls-1" x="91.1507" y="35.2643" width="0.8057" height="4.9568"/><path class="cls-1" d="M104.2221,38.1732h2.0453L105.2637,35.86h-.02Zm.5972-2.9085h.8888l2.3553,4.9569h-.8814L106.52,38.728h-2.5547l-.6743,1.4936h-.8269Z"/><polygon class="cls-1" points="110.892 35.265 111.69 35.265 111.69 39.665 114.894 39.665 114.894 40.222 110.892 40.222 110.892 35.265"/><path class="cls-1" d="M131.7942,13.4565a.29.29,0,0,0-.2434-.1285h-1.8579a.2815.2815,0,0,0-.2675.1829l-4.3885,9.8532-.4717,1.4951-.5714-1.4452-4.6757-9.9076a.2859.2859,0,0,0-.2645-.1784h-2.0317a.2948.2948,0,0,0-.2449.133.29.29,0,0,0-.0227.2766l6.6273,13.5569-.0726.24c-.8087,1.77-1.5464,2.18-2.7814,2.2026a3.628,3.628,0,0,1-1.7476-.46.2825.2825,0,0,0-.2706-.0151.2989.2989,0,0,0-.1617.2162l-.2207,1.362a.2942.2942,0,0,0,.1617.3054,5.7873,5.7873,0,0,0,2.5139.5608h.0651c2.0423,0,3.6084-1.0461,4.7058-3.8805L131.82,13.7271a.2809.2809,0,0,0-.0257-.2706"/><path class="cls-1" d="M135.336,13.7337h-.774v2.1451h-.4066V13.7337h-.774v-.328h1.9546Zm3.2275,2.1451h-.4082v-2.065h-.0121l-.81,2.065h-.2569l-.8148-2.065h-.0137v2.065h-.4021V13.4057h.63l.7362,1.8775.7271-1.8775h.6244Z"/></svg>