<svg xmlns="http://www.w3.org/2000/svg" width="5.11in" height="1.91in" viewBox="0 0 368 137.4"><title>logo</title><path d="M38.57,109.05l-3.68,10.89h7.4Zm4.69,13.74H33.91l-2,5.74H28.72L37,105H40.3l8.25,23.56H45.22Z" fill="#fff"/><path d="M62.33,126a5.55,5.55,0,0,1-5.12,3c-3.29,0-6-2.22-6-6.7V111.84h3v9.82c0,2.92,1.31,4.45,3.65,4.45,2.55,0,4.34-2,4.34-5.31v-9h3v16.69H62.33Z" fill="#fff"/><path d="M76.08,129c-3.71,0-5.44-2.35-5.44-5.94v-8.69H68v-2.49h2.64v-5.41h3v5.41H78.2v2.49H73.64v8.72c0,2.36,1,3.22,2.74,3.22a6.61,6.61,0,0,0,1.53-.2l.29,2.63a9.12,9.12,0,0,1-2.12.26" fill="#fff"/><path d="M88.14,126.31c3,0,5-2.49,5-6.14s-2-6.11-5-6.11-5,2.52-5,6.11,2,6.14,5,6.14m0-14.9c4.63,0,8.06,3.61,8.06,8.76S92.77,129,88.14,129s-8-3.58-8-8.79,3.39-8.76,8-8.76" fill="#fff"/><path d="M102.81,128.53h-3V111.84h2.87v2.39a5.54,5.54,0,0,1,4.73-2.82,4.81,4.81,0,0,1,4.69,3.25,5.25,5.25,0,0,1,4.86-3.25c3,0,5.74,2.22,5.74,6.7v10.42h-3v-10c0-2.72-1.11-4.25-3.13-4.25-2.25,0-3.82,1.93-3.82,5v9.22h-3v-10c0-2.72-1.07-4.25-3.13-4.25-2.28,0-3.81,1.86-3.81,5.21Z" fill="#fff"/><path d="M137,121.79v-1.32h-.39c-5.83,0-7.37,2-7.37,3.58s1.11,2.39,2.74,2.39c2.06,0,5-1.59,5-4.65m.13,4.42A7.56,7.56,0,0,1,131.3,129c-2.77,0-5.12-1.66-5.12-4.71,0-3.92,4.14-6.14,10.37-6.14H137v-.46c0-2.36-1.56-3.56-3.71-3.56a6.32,6.32,0,0,0-4.63,2.13l-2-1.79a8.85,8.85,0,0,1,6.72-3c3.94,0,6.58,2,6.58,6.67v10.45h-2.84Z" fill="#fff"/><path d="M150.69,129c-3.72,0-5.44-2.35-5.44-5.94v-8.69H142.6v-2.49h2.65v-5.41h3v5.41h4.56v2.49h-4.56v8.72c0,2.36,1,3.22,2.73,3.22a6.63,6.63,0,0,0,1.54-.2l.29,2.63a9.12,9.12,0,0,1-2.12.26" fill="#fff"/><path d="M156,111.84h3v16.69h-3Zm1.5-7.3a1.91,1.91,0,0,1,1.89,1.92,1.89,1.89,0,1,1-3.78,0,1.91,1.91,0,0,1,1.89-1.92" fill="#fff"/><path d="M170.61,111.41a7.62,7.62,0,0,1,6.55,3.68l-2.35,1.49a5.13,5.13,0,0,0-4.24-2.45c-3,0-4.92,2.45-4.92,6s2,6.07,4.92,6.07a5.34,5.34,0,0,0,4.34-2.46l2.35,1.5a8,8,0,0,1-6.65,3.68c-4.63,0-8-3.58-8-8.79s3.39-8.76,8-8.76" fill="#fff"/><path d="M136,70.72c-14.77,0-26.8-12.23-26.8-27.28s12-27.28,26.8-27.28,26.8,12.24,26.8,27.28A27.07,27.07,0,0,1,136,70.72M136,0C112.45,0,93.3,19.49,93.3,43.44S112.45,86.89,136,86.89s42.68-19.49,42.68-43.45S159.52,0,136,0" fill="#fff"/><path d="M322.59,70.72a27.07,27.07,0,0,1-26.8-27.28c0-15,12-27.28,26.8-27.28s26.8,12.24,26.8,27.28a27.07,27.07,0,0,1-26.8,27.28m0-70.72c-23.54,0-42.68,19.49-42.68,43.44s19.14,43.45,42.68,43.45,42.68-19.49,42.68-43.45S346.12,0,322.59,0" fill="#fff"/><path d="M229.29,70.72a27.07,27.07,0,0,1-26.8-27.28c0-15,12-27.28,26.8-27.28s26.8,12.24,26.8,27.28-12,27.28-26.8,27.28M272,8.08A8,8,0,0,0,264,0H229.29C205.75,0,186.6,19.49,186.6,43.44s19.15,43.45,42.69,43.45c14.52,0,26.8,7.86,26.8,17.17s-12.28,17.18-26.8,17.18c-13.67,0-22.93-6.5-25.74-12.53A7.88,7.88,0,0,0,193,104.88a8.14,8.14,0,0,0-3.77,10.76c6.07,13,22.18,21.76,40.09,21.76,10.92,0,21.28-3.16,29.18-8.9,8.58-6.24,13.5-15.15,13.5-24.44s-4.92-18.2-13.5-24.43c-1-.69-1.94-1.34-3-2a43.87,43.87,0,0,0,7-61.51H264A8,8,0,0,0,272,8.08" fill="#fff"/><path d="M42.68,70.72a27.07,27.07,0,0,1-26.8-27.27h0c0-15,12-27.28,26.8-27.28s26.8,12.24,26.8,27.28a27.07,27.07,0,0,1-26.8,27.28M42.68,0C19.15,0,0,19.49,0,43.44v0H0l.25,78.8a8,8,0,0,0,7.94,8.06h0a8,8,0,0,0,7.92-8.11L16,77.31a42,42,0,0,0,26.69,9.58c23.54,0,42.68-19.49,42.68-43.45S66.22,0,42.68,0" fill="#fff"/><path d="M362.55,85.9c-2.65,0-4.29-2.1-4.29-4.68a4.29,4.29,0,1,1,4.29,4.68m0-10.35A5.67,5.67,0,1,0,368,81.22a5.45,5.45,0,0,0-5.45-5.67" fill="#fff"/><path d="M361.45,80.9V79.07h1.22c.61,0,1.34.09,1.34.85s-.67,1-1.43,1ZM365,80c0-1.27-.76-1.8-2.25-1.8h-2.33v6.27h1V81.78h.95l1.6,2.68h1.14l-1.72-2.76A1.58,1.58,0,0,0,365,80" fill="#fff"/></svg>